<svg width="20" height="20" viewBox="0 0 20 20" fill="none" xmlns="http://www.w3.org/2000/svg">
<g clip-path="url(#clip0_2684_3417)">
<path d="M18.3337 9.23745V10.0041C18.3326 11.8011 17.7507 13.5497 16.6748 14.989C15.5988 16.4283 14.0864 17.4812 12.3631 17.9907C10.6399 18.5002 8.79804 18.439 7.11238 17.8163C5.42673 17.1935 3.98754 16.0425 3.00946 14.535C2.03138 13.0275 1.56682 11.2442 1.68506 9.45105C1.80329 7.65792 2.498 5.95106 3.66556 4.58501C4.83312 3.21897 6.41098 2.26694 8.16382 1.87091C9.91665 1.47488 11.7505 1.65607 13.392 2.38745M18.3337 3.33268L10.0003 11.6743L7.50033 9.17435" stroke="#588DF5" stroke-width="1.66667" stroke-linecap="round" stroke-linejoin="round"/>
</g>
<defs>
<clipPath id="clip0_2684_3417">
<rect width="20" height="20" fill="white"/>
</clipPath>
</defs>
</svg>
