<svg width="20" height="21" viewBox="0 0 20 21" fill="none" xmlns="http://www.w3.org/2000/svg">
  <path d="M9.99935 19.2477C14.6017 19.2477 18.3327 15.5168 18.3327 10.9144C18.3327 6.31201 14.6017 2.58105 9.99935 2.58105C5.39698 2.58105 1.66602 6.31201 1.66602 10.9144C1.66602 15.5168 5.39698 19.2477 9.99935 19.2477Z" fill="white"/>
  <path d="M6.24935 10.9144L8.74935 13.4144L13.7493 8.41439M18.3327 10.9144C18.3327 15.5168 14.6017 19.2477 9.99935 19.2477C5.39698 19.2477 1.66602 15.5168 1.66602 10.9144C1.66602 6.31201 5.39698 2.58105 9.99935 2.58105C14.6017 2.58105 18.3327 6.31201 18.3327 10.9144Z" 
    stroke="currentColor" stroke-width="1.25" stroke-linecap="round" stroke-linejoin="round"/>
</svg>
