<svg width="20" height="20" viewBox="0 0 20 20" fill="none" xmlns="http://www.w3.org/2000/svg">
<path d="M8.33268 6.66634V5.83301M8.33268 10.4163V9.58301M8.33268 14.1663V13.333M4.33268 3.33301H15.666C16.5994 3.33301 17.0661 3.33301 17.4227 3.51466C17.7363 3.67445 17.9912 3.92942 18.151 4.24302C18.3327 4.59954 18.3327 5.06625 18.3327 5.99967V7.08301C16.7219 7.08301 15.416 8.38884 15.416 9.99967C15.416 11.6105 16.7219 12.9163 18.3327 12.9163V13.9997C18.3327 14.9331 18.3327 15.3998 18.151 15.7563C17.9912 16.0699 17.7363 16.3249 17.4227 16.4847C17.0661 16.6663 16.5994 16.6663 15.666 16.6663H4.33268C3.39926 16.6663 2.93255 16.6663 2.57603 16.4847C2.26243 16.3249 2.00746 16.0699 1.84767 15.7563C1.66602 15.3998 1.66602 14.9331 1.66602 13.9997V12.9163C3.27685 12.9163 4.58268 11.6105 4.58268 9.99967C4.58268 8.38884 3.27685 7.08301 1.66602 7.08301V5.99967C1.66602 5.06625 1.66602 4.59954 1.84767 4.24302C2.00746 3.92942 2.26243 3.67445 2.57603 3.51466C2.93255 3.33301 3.39926 3.33301 4.33268 3.33301Z" stroke="#FFA67D" stroke-width="1.66667" stroke-linecap="round" stroke-linejoin="round"/>
</svg>
