<svg width="20" height="20" viewBox="0 0 20 20" fill="none" xmlns="http://www.w3.org/2000/svg">
<g clip-path="url(#clip0_192_43198)">
<path d="M16.666 10.0003C16.666 13.6822 13.6812 16.667 9.99935 16.667M16.666 10.0003C16.666 6.31843 13.6812 3.33366 9.99935 3.33366M16.666 10.0003H18.3327M9.99935 16.667C6.31745 16.667 3.33268 13.6822 3.33268 10.0003M9.99935 16.667V18.3337M3.33268 10.0003C3.33268 6.31843 6.31745 3.33366 9.99935 3.33366M3.33268 10.0003H1.66602M9.99935 3.33366V1.66699M12.4993 10.0003C12.4993 11.381 11.3801 12.5003 9.99935 12.5003C8.61864 12.5003 7.49935 11.381 7.49935 10.0003C7.49935 8.61961 8.61864 7.50033 9.99935 7.50033C11.3801 7.50033 12.4993 8.61961 12.4993 10.0003Z" stroke="#FD4F01" stroke-width="1.66667" stroke-linecap="round" stroke-linejoin="round"/>
</g>
<defs>
<clipPath id="clip0_192_43198">
<rect width="20" height="20" fill="white"/>
</clipPath>
</defs>
</svg>
