<svg width="28" height="28" viewBox="0 0 28 28" fill="none" xmlns="http://www.w3.org/2000/svg">
<path fill-rule="evenodd" clip-rule="evenodd" d="M19.2433 5.31207C17.8142 4.18333 15.9096 3.92758 13.966 4.48296C13.0115 4.7557 12.2604 5.36913 11.757 5.9566C11.5024 6.25368 11.2969 6.56122 11.1505 6.84429C11.0876 6.96604 11.0231 7.10695 10.9733 7.25663C10.969 7.25721 10.9646 7.25778 10.9602 7.25835C10.6108 7.30413 10.2569 7.35049 9.88393 7.38189C9.09872 7.44797 8.26243 7.44385 7.37807 7.22271C6.76691 7.06988 6.21575 7.19439 5.7726 7.49712C5.35925 7.77954 5.08049 8.1874 4.89369 8.5567C4.52721 9.28136 4.3821 10.1263 4.38197 10.4991H5.98158C5.9818 10.3707 6.07095 9.77476 6.32143 9.27935C6.44332 9.03833 6.56926 8.89068 6.67494 8.81841C6.7509 8.76652 6.83381 8.73658 6.9894 8.77545C8.10497 9.05442 9.13269 9.0511 10.0177 8.97662C10.4318 8.94177 10.8224 8.89058 11.1683 8.84525C11.1896 8.84247 11.2107 8.8397 11.2316 8.83697C11.6024 8.78845 11.9091 8.75012 12.1788 8.73638C12.7419 8.70775 12.9049 8.80346 12.9845 8.89068C13.1041 9.02203 13.2921 9.40816 13.2921 10.4991H14.8917C14.8917 9.71706 14.8119 9.04042 14.5903 8.49767C14.7483 8.42584 14.958 8.34708 15.2288 8.26638C15.9768 8.04346 16.5732 8.07562 16.9514 8.3152C17.2885 8.5288 17.7004 9.07162 17.7005 10.4998H19.3001C19.3 8.79955 18.8009 7.59287 17.8079 6.96364C16.8557 6.36054 15.7015 6.45609 14.7717 6.73317C14.2393 6.89185 13.7816 7.07958 13.4376 7.30932C13.2427 7.2318 13.0413 7.18518 12.8413 7.15906C12.8817 7.10602 12.9252 7.052 12.9718 6.99761C13.3393 6.56869 13.8397 6.1827 14.4054 6.02105C15.9616 5.5764 17.3062 5.82083 18.2511 6.56695C19.1971 7.3141 19.8839 8.6772 19.8839 10.7525H21.4835C21.4835 8.32785 20.6711 6.43999 19.2433 5.31207ZM13.6837 13.115H3.04302C2.95411 13.115 2.91031 13.1414 2.88482 13.1638C2.85228 13.1924 2.8212 13.2416 2.80767 13.3064C2.79421 13.371 2.80306 13.4283 2.82134 13.4675C2.83576 13.4982 2.86569 13.5404 2.94732 13.5759C4.07051 14.0652 4.97262 14.9532 5.48052 16.0681L6.77251 18.9021C7.49753 20.4936 9.0852 21.5154 10.834 21.5154H13.6837H15.9874H16.4435C18.206 21.5154 19.8035 20.4779 20.5206 18.8679L21.7648 16.0749C22.2619 14.9586 23.1544 14.0654 24.2706 13.5681C24.3502 13.5326 24.3787 13.4918 24.3927 13.4617C24.4106 13.423 24.419 13.3662 24.4054 13.3025C24.3918 13.239 24.3612 13.1908 24.3292 13.1628C24.3041 13.1409 24.2611 13.115 24.174 13.115H19.0489H13.6837ZM10.834 23.115H13.6837H15.9874H16.4435C18.838 23.115 21.0085 21.7057 21.9826 19.5183L23.2267 16.7253C23.5631 15.9703 24.167 15.3664 24.922 15.03C26.7332 14.2229 26.1569 11.5154 24.174 11.5154H19.0489H13.6837H3.04302C1.04785 11.5154 0.478782 14.2458 2.30767 15.0427C3.06874 15.3742 3.68032 15.9758 4.02447 16.7312L5.31646 19.5652C6.30138 21.7272 8.45825 23.115 10.834 23.115Z" fill="#8E95A2"/>
</svg>
