<svg width="20" height="20" viewBox="0 0 20 20" fill="none" xmlns="http://www.w3.org/2000/svg">
<g clip-path="url(#clip0_2351_2815)">
<path d="M8.33268 12.4993L5.76997 15.0941C5.4125 15.456 5.23377 15.637 5.08014 15.6498C4.94686 15.6608 4.81636 15.6073 4.72931 15.5057C4.62898 15.3887 4.62898 15.1343 4.62898 14.6256V13.3257C4.62898 12.8693 4.25524 12.5391 3.80369 12.473V12.473C2.7108 12.3129 1.8525 11.4546 1.69241 10.3617C1.66602 10.1815 1.66602 9.96645 1.66602 9.53638V5.66602C1.66602 4.26588 1.66602 3.56582 1.9385 3.03104C2.17818 2.56063 2.56063 2.17818 3.03104 1.9385C3.56582 1.66602 4.26588 1.66602 5.66602 1.66602H11.8327C13.2328 1.66602 13.9329 1.66602 14.4677 1.9385C14.9381 2.17818 15.3205 2.56063 15.5602 3.03104C15.8327 3.56582 15.8327 4.26588 15.8327 5.66602V9.16602M15.8327 18.3327L14.019 17.0717C13.7641 16.8945 13.6366 16.8059 13.4979 16.743C13.3747 16.6873 13.2453 16.6467 13.1123 16.6222C12.9625 16.5946 12.8073 16.5946 12.4968 16.5946H10.9993C10.0659 16.5946 9.59922 16.5946 9.2427 16.4129C8.9291 16.2531 8.67413 15.9982 8.51434 15.6846C8.33268 15.3281 8.33268 14.8613 8.33268 13.9279V11.8327C8.33268 10.8993 8.33268 10.4326 8.51434 10.076C8.67413 9.76243 8.9291 9.50746 9.2427 9.34767C9.59922 9.16602 10.0659 9.16602 10.9993 9.16602H15.666C16.5994 9.16602 17.0661 9.16602 17.4227 9.34767C17.7363 9.50746 17.9912 9.76243 18.151 10.076C18.3327 10.4326 18.3327 10.8993 18.3327 11.8327V14.0946C18.3327 14.8712 18.3327 15.2594 18.2058 15.5657C18.0367 15.9741 17.7122 16.2986 17.3038 16.4677C16.9975 16.5946 16.6093 16.5946 15.8327 16.5946V18.3327Z" stroke="#FD4F01" stroke-width="1.67" stroke-linecap="round" stroke-linejoin="round"/>
</g>
<defs>
<clipPath id="clip0_2351_2815">
<rect width="20" height="20" fill="white"/>
</clipPath>
</defs>
</svg>
