<svg width="40" height="40" viewBox="0 0 40 40" fill="none" xmlns="http://www.w3.org/2000/svg">
<rect width="40" height="40" rx="20" fill="#FFEDE5"/>
<path d="M27.5763 17.6756C27.5763 17.2166 27.5763 16.9871 27.4856 16.8809C27.4068 16.7887 27.2887 16.7398 27.1678 16.7493C27.0285 16.7602 26.8662 16.9225 26.5417 17.247L23.7884 20.0003L26.5417 22.7536C26.8662 23.0781 27.0285 23.2404 27.1678 23.2513C27.2887 23.2608 27.4068 23.2119 27.4856 23.1197C27.5763 23.0134 27.5763 22.784 27.5763 22.325V17.6756Z" stroke="#FD4F01" stroke-width="1.6" stroke-linecap="round" stroke-linejoin="round"/>
<path d="M12.4248 18.3336C12.4248 17.0608 12.4248 16.4244 12.6725 15.9382C12.8904 15.5106 13.2381 15.1629 13.6657 14.945C14.1519 14.6973 14.7883 14.6973 16.0612 14.6973H20.1521C21.4249 14.6973 22.0613 14.6973 22.5475 14.945C22.9752 15.1629 23.3228 15.5106 23.5407 15.9382C23.7884 16.4244 23.7884 17.0608 23.7884 18.3336V21.667C23.7884 22.9398 23.7884 23.5762 23.5407 24.0624C23.3228 24.49 22.9752 24.8377 22.5475 25.0556C22.0613 25.3033 21.4249 25.3033 20.1521 25.3033H16.0612C14.7883 25.3033 14.1519 25.3033 13.6657 25.0556C13.2381 24.8377 12.8904 24.49 12.6725 24.0624C12.4248 23.5762 12.4248 22.9398 12.4248 21.667V18.3336Z" stroke="#FD4F01" stroke-width="1.6" stroke-linecap="round" stroke-linejoin="round"/>
</svg>
