<svg width="16" height="17" viewBox="0 0 16 17" fill="none" xmlns="http://www.w3.org/2000/svg">
<path d="M5.33333 2.91406H5.2C4.0799 2.91406 3.51984 2.91406 3.09202 3.13205C2.71569 3.3238 2.40973 3.62976 2.21799 4.00608C2 4.43391 2 4.99396 2 6.11406V6.2474M5.33333 14.9141H5.2C4.0799 14.9141 3.51984 14.9141 3.09202 14.6961C2.71569 14.5043 2.40973 14.1984 2.21799 13.822C2 13.3942 2 12.8342 2 11.7141V11.5807M14 6.2474V6.11406C14 4.99396 14 4.43391 13.782 4.00608C13.5903 3.62976 13.2843 3.3238 12.908 3.13205C12.4802 2.91406 11.9201 2.91406 10.8 2.91406H10.6667M14 11.5807V11.7141C14 12.8342 14 13.3942 13.782 13.822C13.5903 14.1984 13.2843 14.5043 12.908 14.6961C12.4802 14.9141 11.9201 14.9141 10.8 14.9141H10.6667M2 8.91406H2.00667M5 8.91406H5.00667M11 8.91406H11.0067M8 8.91406H8.00667M14 8.91406H14.0067" stroke="#383A42" stroke-width="1.6" stroke-linecap="round" stroke-linejoin="round"/>
</svg>
