<svg width="20" height="20" viewBox="0 0 20 20" fill="none" xmlns="http://www.w3.org/2000/svg">
<path d="M17.5763 7.70487C17.5763 7.24592 17.5763 7.01645 17.4856 6.91019C17.4068 6.81798 17.2887 6.76906 17.1678 6.77857C17.0285 6.78953 16.8662 6.9518 16.5417 7.27632L13.7884 10.0296L16.5417 12.7829C16.8662 13.1074 17.0285 13.2697 17.1678 13.2806C17.2887 13.2901 17.4068 13.2412 17.4856 13.149C17.5763 13.0427 17.5763 12.8133 17.5763 12.3543V7.70487Z" stroke="white" stroke-width="2" stroke-linecap="round" stroke-linejoin="round"/>
<path d="M2.4248 8.36293C2.4248 7.09008 2.4248 6.45366 2.67252 5.96749C2.89041 5.53985 3.23809 5.19217 3.66574 4.97427C4.1519 4.72656 4.78832 4.72656 6.06117 4.72656H10.1521C11.4249 4.72656 12.0613 4.72656 12.5475 4.97427C12.9752 5.19217 13.3228 5.53985 13.5407 5.96749C13.7884 6.45366 13.7884 7.09008 13.7884 8.36293V11.6963C13.7884 12.9691 13.7884 13.6055 13.5407 14.0917C13.3228 14.5193 12.9752 14.867 12.5475 15.0849C12.0613 15.3326 11.4249 15.3326 10.1521 15.3326H6.06117C4.78832 15.3326 4.1519 15.3326 3.66574 15.0849C3.23809 14.867 2.89041 14.5193 2.67252 14.0917C2.4248 13.6055 2.4248 12.9691 2.4248 11.6963V8.36293Z" stroke="white" stroke-width="2" stroke-linecap="round" stroke-linejoin="round"/>
</svg>
