<svg width="28" height="29" viewBox="0 0 28 29" fill="none" xmlns="http://www.w3.org/2000/svg">
<rect y="0.5" width="28" height="28" rx="14" fill="#FFEDE5"/>
<path d="M19.3033 12.8729C19.3033 12.5516 19.3033 12.391 19.2398 12.3166C19.1847 12.2521 19.102 12.2178 19.0174 12.2245C18.9199 12.2322 18.8063 12.3457 18.5791 12.5729L16.6518 14.5002L18.5791 16.4275C18.8063 16.6547 18.9199 16.7682 19.0174 16.7759C19.102 16.7826 19.1847 16.7483 19.2398 16.6838C19.3033 16.6094 19.3033 16.4488 19.3033 16.1275V12.8729Z" stroke="#FD4F01" stroke-width="1.33" stroke-linecap="round" stroke-linejoin="round"/>
<path d="M8.69727 13.3335C8.69727 12.4425 8.69727 11.9971 8.87066 11.6567C9.02319 11.3574 9.26657 11.114 9.56592 10.9615C9.90623 10.7881 10.3517 10.7881 11.2427 10.7881H14.1064C14.9973 10.7881 15.4428 10.7881 15.7832 10.9615C16.0825 11.114 16.3259 11.3574 16.4784 11.6567C16.6518 11.9971 16.6518 12.4425 16.6518 13.3335V15.6669C16.6518 16.5579 16.6518 17.0034 16.4784 17.3437C16.3259 17.643 16.0825 17.8864 15.7832 18.0389C15.4428 18.2123 14.9973 18.2123 14.1064 18.2123H11.2427C10.3517 18.2123 9.90623 18.2123 9.56592 18.0389C9.26657 17.8864 9.02319 17.643 8.87066 17.3437C8.69727 17.0034 8.69727 16.5579 8.69727 15.6669V13.3335Z" stroke="#FD4F01" stroke-width="1.33" stroke-linecap="round" stroke-linejoin="round"/>
</svg>
