<svg width="40" height="40" viewBox="0 0 40 40" fill="none" xmlns="http://www.w3.org/2000/svg">
<path d="M11.375 15.8015C10.8205 14.5836 10.5226 13.2645 10.5 11.9265C10.7631 9.67447 11.8442 7.59752 13.5379 6.09015C15.2317 4.58277 17.4201 3.75 19.6875 3.75C21.9548 3.75 24.1432 4.58277 25.837 6.09015C27.5307 7.59752 28.6119 9.67447 28.875 11.9265C28.8388 13.2629 28.5416 14.5793 28 15.8015" stroke="#01B528" stroke-width="3.33333" stroke-linecap="round" stroke-linejoin="round"/>
<path d="M10 26.4268C7.89242 26.0453 5.98614 24.9347 4.61497 23.2893C3.2438 21.6439 2.49513 19.5686 2.50002 17.4268C2.50002 12.4268 5.87504 9.30176 10.875 9.30176" stroke="#01B528" stroke-width="3.33333" stroke-linecap="round" stroke-linejoin="round"/>
<path d="M28.375 9.30176C33.5 9.30176 36.875 12.4268 36.875 17.4268C36.8799 19.5686 36.1312 21.6439 34.76 23.2893C33.3889 24.9347 31.4826 26.0453 29.375 26.4268" stroke="#01B528" stroke-width="3.33333" stroke-linecap="round" stroke-linejoin="round"/>
<path d="M10 26.4268V35.9268H29.25V26.4268" stroke="#01B528" stroke-width="3.33333" stroke-linecap="round" stroke-linejoin="round"/>
<path d="M10 31.1768H29.25" stroke="#01B528" stroke-width="3.33333" stroke-linecap="round" stroke-linejoin="round"/>
<path d="M19.625 31.1768V26.1768" stroke="#01B528" stroke-width="3.33333" stroke-linecap="round" stroke-linejoin="round"/>
</svg>
