<svg width="40" height="40" viewBox="0 0 40 40" fill="none" xmlns="http://www.w3.org/2000/svg">
<path d="M14.1654 24.4451C14.1654 26.5929 15.9065 28.334 18.0543 28.334H21.6654C23.9666 28.334 25.832 26.4685 25.832 24.1673C25.832 21.8661 23.9666 20.0007 21.6654 20.0007H18.332C16.0308 20.0007 14.1654 18.1352 14.1654 15.834C14.1654 13.5328 16.0308 11.6673 18.332 11.6673H21.9431C24.0909 11.6673 25.832 13.4084 25.832 15.5562M19.9987 9.16732V11.6673M19.9987 28.334V30.834M36.6654 20.0007C36.6654 29.2054 29.2034 36.6673 19.9987 36.6673C10.794 36.6673 3.33203 29.2054 3.33203 20.0007C3.33203 10.7959 10.794 3.33398 19.9987 3.33398C29.2034 3.33398 36.6654 10.7959 36.6654 20.0007Z" stroke="#01B528" stroke-width="3.33333" stroke-linecap="round" stroke-linejoin="round"/>
</svg>
