<svg width="40" height="41" viewBox="0 0 40 41" fill="none" xmlns="http://www.w3.org/2000/svg">
<rect y="0.445312" width="40" height="40" rx="20" fill="white" fill-opacity="0.6"/>
<path d="M13 13.4348C13 12.4637 13 11.9781 13.2025 11.7104C13.3789 11.4772 13.6485 11.3329 13.9404 11.3155C14.2754 11.2955 14.6795 11.5648 15.4875 12.1035L26.0031 19.1139C26.6708 19.559 27.0046 19.7816 27.1209 20.0621C27.2227 20.3074 27.2227 20.583 27.1209 20.8283C27.0046 21.1088 26.6708 21.3314 26.0031 21.7765L15.4875 28.7869C14.6795 29.3256 14.2754 29.5949 13.9404 29.5749C13.6485 29.5575 13.3789 29.4132 13.2025 29.18C13 28.9123 13 28.4267 13 27.4556V13.4348Z" fill="black"/>
</svg>
