<svg width="45" height="33" viewBox="0 0 45 33" fill="none" xmlns="http://www.w3.org/2000/svg">
<g filter="url(#filter0_dd_192_43301)">
<rect x="6.86523" y="3.33301" width="31.0448" height="20" rx="3.58209" fill="white"/>
<rect x="6.79061" y="3.25838" width="31.194" height="20.1493" rx="3.65672" stroke="#D6DCE5" stroke-width="0.149254"/>
<path d="M24.6184 9.22527H20.0475V17.4393H24.6184V9.22527Z" fill="#FF5F00"/>
<path d="M20.3377 13.3323C20.337 12.5412 20.5163 11.7603 20.8619 11.0488C21.2076 10.3372 21.7106 9.71367 22.3329 9.22527C21.5623 8.61953 20.6368 8.24284 19.6622 8.13823C18.6876 8.03363 17.7033 8.20533 16.8216 8.63373C15.94 9.06212 15.1967 9.72992 14.6767 10.5608C14.1566 11.3917 13.8809 12.3521 13.8809 13.3323C13.8809 14.3125 14.1566 15.2729 14.6767 16.1038C15.1967 16.9346 15.94 17.6024 16.8216 18.0308C17.7033 18.4592 18.6876 18.6309 19.6622 18.5263C20.6368 18.4217 21.5623 18.045 22.3329 17.4393C21.7107 16.9509 21.2076 16.3273 20.862 15.6158C20.5163 14.9042 20.337 14.1233 20.3377 13.3323Z" fill="#EB001B"/>
<path d="M30.7848 13.3323C30.7848 14.3125 30.5091 15.2729 29.9891 16.1037C29.4691 16.9346 28.7258 17.6024 27.8442 18.0308C26.9626 18.4592 25.9782 18.6309 25.0036 18.5263C24.029 18.4217 23.1036 18.045 22.3329 17.4393C22.9547 16.9504 23.4573 16.3267 23.803 15.6153C24.1486 14.9038 24.3282 14.1232 24.3282 13.3323C24.3282 12.5413 24.1486 11.7607 23.803 11.0493C23.4573 10.3378 22.9547 9.71416 22.3329 9.22527C23.1036 8.61953 24.029 8.24284 25.0036 8.13823C25.9782 8.03363 26.9626 8.20534 27.8442 8.63374C28.7258 9.06214 29.4691 9.72994 29.9891 10.5608C30.5091 11.3917 30.7848 12.3521 30.7848 13.3323Z" fill="#F79E1B"/>
<path d="M30.2864 16.5693V16.4011H30.3542V16.3669H30.1815V16.4011H30.2493V16.5693H30.2864ZM30.6217 16.5693V16.3665H30.5687L30.5078 16.506L30.4469 16.3665H30.394V16.5693H30.4314V16.4164L30.4885 16.5482H30.5272L30.5843 16.416V16.5693H30.6217Z" fill="#F79E1B"/>
</g>
<defs>
<filter id="filter0_dd_192_43301" x="0.746647" y="0.198519" width="43.2821" height="32.2391" filterUnits="userSpaceOnUse" color-interpolation-filters="sRGB">
<feFlood flood-opacity="0" result="BackgroundImageFix"/>
<feColorMatrix in="SourceAlpha" type="matrix" values="0 0 0 0 0 0 0 0 0 0 0 0 0 0 0 0 0 0 127 0" result="hardAlpha"/>
<feOffset dy="0.298507"/>
<feGaussianBlur stdDeviation="1.49254"/>
<feColorMatrix type="matrix" values="0 0 0 0 0.717647 0 0 0 0 0.717647 0 0 0 0 0.717647 0 0 0 0.08 0"/>
<feBlend mode="normal" in2="BackgroundImageFix" result="effect1_dropShadow_192_43301"/>
<feColorMatrix in="SourceAlpha" type="matrix" values="0 0 0 0 0 0 0 0 0 0 0 0 0 0 0 0 0 0 127 0" result="hardAlpha"/>
<feOffset dy="2.98507"/>
<feGaussianBlur stdDeviation="2.98507"/>
<feColorMatrix type="matrix" values="0 0 0 0 0.717647 0 0 0 0 0.717647 0 0 0 0 0.717647 0 0 0 0.08 0"/>
<feBlend mode="normal" in2="effect1_dropShadow_192_43301" result="effect2_dropShadow_192_43301"/>
<feBlend mode="normal" in="SourceGraphic" in2="effect2_dropShadow_192_43301" result="shape"/>
</filter>
</defs>
</svg>
