<svg width="75" height="36" viewBox="0 0 75 36" fill="none" xmlns="http://www.w3.org/2000/svg">
<g filter="url(#filter0_dd_192_43338)">
<rect x="6.92537" y="3.25838" width="61.1493" height="23.1493" rx="3.65672" stroke="#D6DCE5" stroke-width="0.149254"/>
<path d="M15.5459 21.0926L15.7539 19.7717L15.2906 19.761H13.0784L14.6158 10.0136C14.6205 9.98414 14.636 9.9567 14.6587 9.93722C14.6814 9.91774 14.7105 9.907 14.7407 9.907H18.4709C19.7093 9.907 20.5639 10.1647 21.0101 10.6732C21.2193 10.9118 21.3525 11.1612 21.417 11.4355C21.4845 11.7234 21.4858 12.0674 21.4197 12.4869L21.4149 12.5175V12.7863L21.6242 12.9048C21.8004 12.9983 21.9403 13.1052 22.0476 13.2277C22.2267 13.4317 22.3424 13.691 22.3913 13.9983C22.4418 14.3145 22.4251 14.6906 22.3424 15.1165C22.247 15.6064 22.0926 16.0331 21.8843 16.3822C21.6925 16.7039 21.4484 16.9706 21.1585 17.1775C20.8817 17.3739 20.5528 17.5231 20.181 17.6185C19.8206 17.7123 19.4099 17.7597 18.9593 17.7597H18.669C18.4614 17.7597 18.2597 17.8344 18.1015 17.9684C17.9428 18.1052 17.8377 18.292 17.8056 18.4965L17.7837 18.6154L17.4162 20.9435L17.3995 21.029C17.3952 21.0561 17.3876 21.0696 17.3765 21.0788C17.3666 21.087 17.3522 21.0926 17.3383 21.0926H15.5459Z" fill="#253B80"/>
<path d="M21.8215 12.5491C21.8104 12.6203 21.7977 12.693 21.7834 12.7678C21.2914 15.2932 19.6085 16.1656 17.4589 16.1656H16.3645C16.1017 16.1656 15.8802 16.3565 15.8392 16.6158L15.1202 21.1763C15.0935 21.3465 15.2248 21.5 15.3965 21.5H17.3377C17.5676 21.5 17.7628 21.333 17.7989 21.1064L17.818 21.0077L18.1836 18.6886L18.207 18.5615C18.2428 18.334 18.4384 18.167 18.6683 18.167H18.9586C20.8392 18.167 22.3115 17.4035 22.7418 15.1942C22.9216 14.2713 22.8285 13.5006 22.3528 12.9586C22.2089 12.7952 22.0303 12.6596 21.8215 12.5491Z" fill="#179BD7"/>
<path d="M21.3059 12.3433C21.2308 12.3214 21.1532 12.3015 21.0736 12.2836C20.9937 12.2661 20.9118 12.2506 20.8275 12.2371C20.5324 12.1894 20.2091 12.1667 19.8627 12.1667H16.939C16.867 12.1667 16.7986 12.183 16.7374 12.2124C16.6025 12.2773 16.5023 12.4049 16.4781 12.5612L15.856 16.5002L15.8381 16.6151C15.8791 16.3559 16.1006 16.165 16.3635 16.165H17.4579C19.6074 16.165 21.2905 15.2922 21.7824 12.7672C21.797 12.6924 21.8094 12.6196 21.8205 12.5485C21.6961 12.4824 21.5612 12.426 21.416 12.3779C21.3803 12.3659 21.3434 12.3544 21.3059 12.3433Z" fill="#222D65"/>
<path d="M16.4795 12.5614C16.5038 12.4052 16.6041 12.2775 16.7388 12.2131C16.8005 12.1837 16.8685 12.1674 16.9404 12.1674H19.8643C20.2107 12.1674 20.534 12.19 20.829 12.2378C20.9134 12.2513 20.9953 12.2668 21.0752 12.2843C21.1548 12.3022 21.2323 12.3221 21.3075 12.3439C21.3448 12.3551 21.3818 12.3666 21.418 12.3781C21.5631 12.4262 21.698 12.4831 21.8224 12.5487C21.9688 11.6154 21.8213 10.98 21.3167 10.4046C20.7603 9.77119 19.7561 9.5 18.4712 9.5H14.7409C14.4784 9.5 14.2546 9.69086 14.2139 9.95052L12.6602 19.7981C12.6296 19.9929 12.7799 20.1687 12.9763 20.1687H15.2794L16.4795 12.5614Z" fill="#253B80"/>
<path fill-rule="evenodd" clip-rule="evenodd" d="M31.071 12.0741H28.3396C28.1527 12.0741 27.9937 12.21 27.9645 12.3944L26.8598 19.3978C26.8379 19.5361 26.9449 19.6606 27.0851 19.6606H28.3891C28.576 19.6606 28.735 19.5248 28.7641 19.34L29.0621 17.4511C29.0908 17.2661 29.2502 17.1304 29.4367 17.1304H30.3014C32.1007 17.1304 33.139 16.2598 33.4103 14.5346C33.5325 13.7799 33.4155 13.1869 33.0619 12.7714C32.6738 12.3155 31.9851 12.0741 31.071 12.0741ZM31.3861 14.632C31.2368 15.6121 30.4879 15.6121 29.7638 15.6121H29.3516L29.6408 13.7817C29.658 13.6712 29.7538 13.5897 29.8657 13.5897H30.0546C30.5478 13.5897 31.0131 13.5897 31.2536 13.8708C31.3968 14.0386 31.4408 14.2877 31.3861 14.632ZM39.2359 14.6006H37.9279C37.8164 14.6006 37.7201 14.6821 37.7029 14.7928L37.6451 15.1586L37.5536 15.026C37.2704 14.615 36.6391 14.4777 36.0088 14.4777C34.5633 14.4777 33.3288 15.5723 33.0884 17.1079C32.9634 17.8737 33.1411 18.6061 33.5756 19.1169C33.9742 19.5865 34.5446 19.7822 35.2231 19.7822C36.3877 19.7822 37.0337 19.0334 37.0337 19.0334L36.9753 19.3969C36.9533 19.5359 37.0603 19.6604 37.1996 19.6604H38.3779C38.5653 19.6604 38.7234 19.5246 38.7529 19.3398L39.4599 14.8634C39.4822 14.7257 39.3756 14.6006 39.2359 14.6006ZM37.4126 17.1461C37.2863 17.8933 36.6932 18.3949 35.9369 18.3949C35.5571 18.3949 35.2534 18.2731 35.0586 18.0423C34.8653 17.8131 34.7917 17.4867 34.8533 17.1234C34.9712 16.3825 35.5743 15.8647 36.3191 15.8647C36.6905 15.8647 36.9925 15.988 37.1913 16.2208C37.3906 16.4561 37.4697 16.7843 37.4126 17.1461ZM44.8877 14.6004H46.2022C46.3862 14.6004 46.4936 14.8069 46.389 14.9579L42.0173 21.2675C41.9465 21.3697 41.8299 21.4305 41.7053 21.4305H40.3925C40.2077 21.4305 40.0998 21.2224 40.2068 21.0711L41.568 19.1498L40.1203 14.9015C40.0702 14.7538 40.1792 14.6004 40.3363 14.6004H41.6279C41.7957 14.6004 41.9438 14.7106 41.9922 14.8712L42.7605 17.437L44.5735 14.7669C44.6444 14.6627 44.7624 14.6004 44.8877 14.6004Z" fill="#253B80"/>
<path fill-rule="evenodd" clip-rule="evenodd" d="M59.1394 19.3972L60.2603 12.2657C60.2775 12.155 60.3735 12.0735 60.4849 12.0731H61.7469C61.8863 12.0731 61.9933 12.1981 61.9713 12.3363L60.8658 19.3394C60.837 19.5242 60.6781 19.66 60.4908 19.66H59.3638C59.2244 19.66 59.1174 19.5354 59.1394 19.3972ZM50.5544 12.0735H47.8225C47.636 12.0735 47.477 12.2093 47.4478 12.3938L46.3431 19.3972C46.3211 19.5354 46.4281 19.66 46.5677 19.66H47.9694C48.0997 19.66 48.2112 19.565 48.2315 19.4356L48.545 17.4505C48.5738 17.2655 48.7331 17.1298 48.9196 17.1298H49.7839C51.5835 17.1298 52.6217 16.2592 52.8932 14.534C53.0157 13.7793 52.898 13.1862 52.5446 12.7708C52.1566 12.3149 51.4685 12.0735 50.5544 12.0735ZM50.8695 14.6314C50.7206 15.6114 49.9716 15.6114 49.2471 15.6114H48.8353L49.1249 13.7811C49.1421 13.6706 49.2371 13.5891 49.3493 13.5891H49.5382C50.0311 13.5891 50.4969 13.5891 50.7372 13.8702C50.8806 14.038 50.9242 14.2871 50.8695 14.6314ZM58.7185 14.6H57.4114C57.2991 14.6 57.2037 14.6815 57.1869 14.7922L57.129 15.1579L57.0372 15.0254C56.754 14.6144 56.123 14.4771 55.4928 14.4771C54.0472 14.4771 52.8132 15.5717 52.5727 17.1073C52.4481 17.8731 52.625 18.6055 53.0595 19.1163C53.4589 19.5859 54.0286 19.7816 54.7071 19.7816C55.8717 19.7816 56.5174 19.0328 56.5174 19.0328L56.4592 19.3963C56.4372 19.5353 56.5442 19.6598 56.6845 19.6598H57.8622C58.0487 19.6598 58.2077 19.524 58.2369 19.3392L58.9442 14.8628C58.9658 14.7251 58.8588 14.6 58.7185 14.6ZM56.8954 17.1455C56.7699 17.8927 56.1761 18.3943 55.4196 18.3943C55.0405 18.3943 54.7363 18.2725 54.5413 18.0416C54.3479 17.8125 54.2753 17.4861 54.3361 17.1228C54.4546 16.3819 55.0569 15.8641 55.8018 15.8641C56.1733 15.8641 56.4751 15.9873 56.6742 16.2202C56.8742 16.4555 56.9533 16.7837 56.8954 17.1455Z" fill="#179BD7"/>
</g>
<defs>
<filter id="filter0_dd_192_43338" x="0.881413" y="0.198519" width="73.2372" height="35.2391" filterUnits="userSpaceOnUse" color-interpolation-filters="sRGB">
<feFlood flood-opacity="0" result="BackgroundImageFix"/>
<feColorMatrix in="SourceAlpha" type="matrix" values="0 0 0 0 0 0 0 0 0 0 0 0 0 0 0 0 0 0 127 0" result="hardAlpha"/>
<feOffset dy="0.298507"/>
<feGaussianBlur stdDeviation="1.49254"/>
<feColorMatrix type="matrix" values="0 0 0 0 0.717647 0 0 0 0 0.717647 0 0 0 0 0.717647 0 0 0 0.08 0"/>
<feBlend mode="normal" in2="BackgroundImageFix" result="effect1_dropShadow_192_43338"/>
<feColorMatrix in="SourceAlpha" type="matrix" values="0 0 0 0 0 0 0 0 0 0 0 0 0 0 0 0 0 0 127 0" result="hardAlpha"/>
<feOffset dy="2.98507"/>
<feGaussianBlur stdDeviation="2.98507"/>
<feColorMatrix type="matrix" values="0 0 0 0 0.717647 0 0 0 0 0.717647 0 0 0 0 0.717647 0 0 0 0.08 0"/>
<feBlend mode="normal" in2="effect1_dropShadow_192_43338" result="effect2_dropShadow_192_43338"/>
<feBlend mode="normal" in="SourceGraphic" in2="effect2_dropShadow_192_43338" result="shape"/>
</filter>
</defs>
</svg>
