<svg width="226" height="28" viewBox="0 0 226 28" fill="none" xmlns="http://www.w3.org/2000/svg">
<path d="M224.957 0.0198778C217.522 0.0198778 210.087 0.0198778 202.651 0.0198778C201.6 0.856848 200.549 1.69382 199.488 2.52106C199.274 2.6865 199.118 2.86168 199.05 3.13419C198.048 6.91028 197.026 10.6864 196.004 14.4527C195.936 14.7155 195.955 14.9004 196.121 15.1145C196.656 15.8153 197.182 16.516 197.678 17.2362C197.873 17.5184 198.087 17.606 198.418 17.606C200.549 17.5963 202.69 17.5963 204.821 17.5963C207.498 17.5963 210.174 17.606 212.851 17.5865C213.22 17.5865 213.347 17.6449 213.211 18.0439C212.997 18.696 212.802 19.3578 212.666 20.039C212.568 20.5354 212.383 20.7203 211.829 20.7106C206.194 20.6814 200.559 20.7008 194.914 20.6814C194.476 20.6814 194.272 20.7592 194.145 21.2361C193.629 23.3091 193.065 25.3723 192.481 27.4355C192.355 27.8735 192.423 27.9708 192.88 27.9708C200.131 27.9611 207.371 27.9611 214.622 27.9611C214.875 27.9611 215.089 27.9124 215.293 27.7469C216.286 26.9586 217.288 26.1703 218.291 25.3918C218.495 25.236 218.612 25.0414 218.68 24.7981C219.692 21.0415 220.695 17.2848 221.717 13.5282C221.794 13.2362 221.746 13.0026 221.561 12.7593C221.045 12.0976 220.539 11.426 220.072 10.7253C219.848 10.3944 219.595 10.2874 219.196 10.2874C214.495 10.2971 209.795 10.2971 205.094 10.2971C204.413 10.2971 204.413 10.2971 204.578 9.6645C204.841 8.68155 204.841 8.68155 203.916 8.27279C203.332 8.01975 202.758 7.75699 202.174 7.49422C202.058 7.43582 201.882 7.44555 201.843 7.24118C202.067 7.24118 202.272 7.24118 202.476 7.24118C209.269 7.24118 216.072 7.24118 222.865 7.25091C223.274 7.25091 223.459 7.14386 223.546 6.74483C223.79 5.71322 224.062 4.68161 224.364 3.66946C224.695 2.55998 224.88 1.40185 225.337 0.321576C225.454 -0.0287833 225.201 0.0198778 224.957 0.0198778Z" fill="#FD4F01"/>
<path d="M160.024 20.7101C154.691 20.7004 149.348 20.7004 144.014 20.7004C143.226 20.7004 143.226 20.7004 143.421 19.9705C143.586 19.3574 143.781 18.754 143.898 18.1311C143.985 17.6932 144.19 17.5861 144.618 17.5861C149.095 17.6056 153.571 17.5958 158.048 17.6056C158.447 17.6056 158.632 17.518 158.729 17.0995C159.255 15.0265 159.819 12.9633 160.403 10.9001C160.54 10.4037 160.442 10.3161 159.946 10.3161C155.528 10.3356 151.109 10.3259 146.691 10.3259C146.486 10.3259 146.292 10.3259 146.039 10.3259C146.039 10.3259 146.029 10.3161 146.029 10.3064C146.136 9.88793 146.214 9.50837 146.34 9.14828C146.457 8.81738 146.37 8.65194 146.039 8.51568C145.153 8.14586 144.277 7.74684 143.401 7.35755C143.411 7.32835 143.421 7.28943 143.421 7.26023C143.615 7.26023 143.82 7.26023 144.014 7.26023C150.807 7.26023 157.61 7.2505 164.403 7.26996C164.871 7.26996 165.055 7.14344 165.153 6.69576C165.377 5.73227 165.659 4.78825 165.902 3.83449C166.233 2.55957 166.652 1.30412 166.885 0C159.352 0 151.829 0 144.297 0C143.216 0.856435 142.126 1.7226 141.036 2.5693C140.822 2.73475 140.667 2.91966 140.598 3.18243C138.671 10.3745 136.744 17.5569 134.798 24.749C134.72 25.0215 134.788 25.2064 134.944 25.4108C135.479 26.131 136.024 26.8414 136.53 27.5811C136.735 27.8828 136.959 27.9801 137.319 27.9801C144.511 27.9704 151.703 27.9704 158.895 27.9801C159.313 27.9801 159.479 27.8536 159.576 27.4643C160.043 25.6444 160.549 23.8342 161.026 22.0143C161.133 21.6055 161.435 21.0313 161.279 20.8075C161.065 20.5058 160.472 20.7101 160.024 20.7101Z" fill="#FD4F01"/>
<path d="M136.764 2.46232C136.161 1.65454 135.577 0.837037 134.993 0.0195312C127.421 0.0195312 119.859 0.0195312 112.288 0.0195312C112.258 0.107121 112.22 0.194711 112.2 0.282301C110.137 7.96101 108.074 15.63 106.01 23.3087C105.592 24.8464 105.183 26.3938 104.765 27.9802C107.139 27.9802 109.465 27.9802 111.782 27.9802C112.112 27.9802 112.122 27.7563 112.181 27.5422C112.628 25.8877 113.056 24.2333 113.524 22.5885C113.64 22.1895 113.524 22.0338 113.164 21.9073C112.765 21.7613 112.375 21.5764 111.986 21.3817C111.558 21.1676 111.071 21.0508 110.653 20.7199C110.75 20.6907 110.789 20.6713 110.828 20.6713C114.37 20.6713 117.903 20.6713 121.446 20.6615C121.728 20.6615 121.893 20.7686 122.049 20.9827C122.623 21.7905 123.207 22.5885 123.811 23.3768C124.015 23.6493 124.044 23.8926 123.957 24.1943C123.645 25.3038 123.373 26.423 123.042 27.5325C122.935 27.9023 123.022 27.9704 123.382 27.9704C125.514 27.9607 127.655 27.9607 129.786 27.9704C130.127 27.9704 130.273 27.8634 130.36 27.5325C130.915 25.4109 131.48 23.2892 132.073 21.1676C132.171 20.8173 132.102 20.5837 131.888 20.3112C131.119 19.299 130.39 18.2577 129.621 17.2553C129.387 16.9536 129.446 16.8173 129.718 16.6032C131.11 15.5327 132.482 14.4329 133.874 13.3624C134.117 13.1677 134.273 12.9634 134.36 12.6519C135.197 9.50844 136.044 6.36493 136.91 3.22143C136.988 2.92946 136.959 2.71535 136.764 2.46232ZM114.273 7.29922C118.993 7.29922 123.713 7.29922 128.492 7.29922C128.248 8.19459 128.025 9.05102 127.791 9.91719C127.733 10.141 127.528 10.2286 127.373 10.3551C126.302 11.2018 125.222 12.0291 124.161 12.8855C123.927 13.0802 123.694 13.1386 123.392 13.1386C121.124 13.1288 118.867 13.1288 116.599 13.1386C116.181 13.1386 116.044 13.0899 116.181 12.6227C116.531 11.4646 116.794 10.287 117.134 9.12888C117.232 8.79799 117.144 8.67147 116.852 8.55468C115.976 8.18486 115.12 7.78584 114.254 7.40628C114.263 7.36735 114.263 7.32842 114.273 7.29922Z" fill="#FD4F01"/>
<path d="M192.754 12.759C193.6 9.59603 194.447 6.43306 195.303 3.27009C195.391 2.96839 195.323 2.74455 195.138 2.50125C194.525 1.68374 193.921 0.846769 193.318 0.0195312C185.746 0.0195312 178.184 0.0195312 170.613 0.0195312C170.661 0.214175 170.584 0.379623 170.535 0.564535C168.141 9.47924 165.737 18.3842 163.343 27.2989C163.158 27.9899 163.158 27.9899 163.849 27.9899C165.893 27.9899 167.927 27.9802 169.971 27.9996C170.379 28.0094 170.516 27.8537 170.603 27.4936C171.012 25.9267 171.401 24.3501 171.868 22.8026C172.034 22.2382 171.907 22.0241 171.391 21.8197C170.603 21.518 169.844 21.1384 169.075 20.7978C169.085 20.7686 169.095 20.7491 169.095 20.7199C169.104 20.7005 169.114 20.6907 169.124 20.681C169.318 20.681 169.513 20.681 169.717 20.681C173.951 20.681 178.175 20.681 182.408 20.681C182.71 20.681 182.982 20.6713 183.255 20.4669C186.272 18.0825 189.308 15.7079 192.335 13.3332C192.539 13.1775 192.685 13.0023 192.754 12.759ZM173.046 7.27976C177.484 7.27976 181.912 7.27976 186.35 7.27003C186.788 7.27003 186.866 7.33815 186.798 7.8053C186.544 9.42085 185.785 10.6471 184.355 11.5035C183.605 11.9512 183.031 12.7687 182.243 13.0412C181.455 13.3137 180.51 13.1191 179.625 13.1288C178.107 13.1288 176.588 13.1288 175.08 13.1288C174.895 13.1288 174.71 13.1288 174.477 13.1288C174.827 11.8052 175.148 10.5498 175.518 9.30406C175.644 8.87584 175.605 8.652 175.138 8.47682C174.292 8.15566 173.474 7.74691 172.481 7.30896C172.773 7.28949 172.91 7.27976 173.046 7.27976Z" fill="#FD4F01"/>
<path d="M105.193 12.5547C106.001 9.49874 106.828 6.44282 107.655 3.39664C107.763 3.01709 107.704 2.74458 107.471 2.43315C106.896 1.63511 106.225 0.914928 105.777 0.0292969C98.2055 0.0292969 90.6436 0.0292969 83.0719 0.0292969C80.5707 9.33329 78.0695 18.6276 75.5684 27.9218C75.6559 27.951 75.6851 27.9802 75.7241 27.9802C77.9917 27.9802 80.2496 27.9802 82.5172 27.9997C82.8578 27.9997 82.9064 27.8148 82.9746 27.5617C83.3833 25.9948 83.7726 24.4182 84.2495 22.8805C84.4441 22.2577 84.3176 22.0144 83.7142 21.8003C82.9454 21.5278 82.2057 21.1385 81.4563 20.7978C81.4661 20.7589 81.4758 20.72 81.4953 20.6908C81.6997 20.6908 81.904 20.6908 82.1084 20.6908C86.2835 20.6908 90.4586 20.681 94.6338 20.7005C95.1496 20.7005 95.5583 20.574 95.9573 20.2528C98.8283 17.9755 101.709 15.7176 104.59 13.4695C104.892 13.2067 105.086 12.9342 105.193 12.5547ZM85.067 7.27979C85.2324 7.27979 85.3882 7.27979 85.5536 7.27979C89.9331 7.27979 94.3126 7.28953 98.6824 7.27006C99.2371 7.27006 99.2274 7.41604 99.1495 7.89292C98.9062 9.45008 98.1666 10.6179 96.804 11.4549C96.0255 11.9318 95.4221 12.7688 94.6046 13.0607C93.7871 13.343 92.7944 13.1386 91.8795 13.1483C90.3613 13.1483 88.8528 13.1386 87.3346 13.158C86.9648 13.158 86.8383 13.1094 86.9648 12.6909C87.3151 11.5133 87.5876 10.3162 87.9283 9.13865C88.0256 8.80775 87.938 8.68123 87.646 8.55471C86.7701 8.18489 85.904 7.7956 85.0378 7.40631C85.0573 7.35765 85.0573 7.31872 85.067 7.27979Z" fill="#FD4F01"/>
<path d="M25.6904 13.2748C21.2719 13.2748 16.8535 13.265 12.4351 13.2845C11.8803 13.2845 11.8317 13.1288 11.9777 12.6616C12.3183 11.523 12.6005 10.3648 12.9314 9.21644C13.0385 8.84661 12.9995 8.6617 12.6005 8.50599C11.7246 8.15563 10.8779 7.74687 10.0215 7.36732C10.0312 7.33812 10.0312 7.30892 10.041 7.26999C10.2356 7.26999 10.44 7.26999 10.6346 7.26999C17.4277 7.26999 24.2305 7.26026 31.0236 7.27973C31.4907 7.27973 31.6757 7.16294 31.773 6.70553C31.919 5.97561 32.1623 5.26516 32.3472 4.54498C32.7267 3.02675 33.2231 1.54745 33.5151 0.00976562C25.9434 0.00976562 18.3815 0.00976562 10.8098 0.00976562C10.7903 0.214142 10.6054 0.262803 10.4789 0.360125C9.54461 1.10951 8.61032 1.84915 7.65657 2.57907C7.40353 2.77371 7.26728 2.99755 7.18942 3.29925C6.8196 4.73962 6.42057 6.17026 6.03129 7.61062C4.25029 14.2091 2.47903 20.7978 0.698035 27.3865C0.581248 27.805 0.571516 27.9899 1.12625 27.9801C3.19921 27.9412 5.28191 27.9509 7.3646 27.9801C7.76362 27.9899 7.9096 27.8439 8.00693 27.4838C8.38648 26.0045 8.7855 24.5349 9.18452 23.0654C9.47649 21.9754 9.47649 21.9851 8.45461 21.5277C7.82201 21.2454 7.19915 20.9632 6.57629 20.6907C6.56656 20.6907 6.56656 20.681 6.55683 20.681C6.56656 20.6421 6.58602 20.5934 6.59575 20.5545C6.60549 20.5545 6.61522 20.5545 6.61522 20.5545C6.82933 20.5545 7.04344 20.5545 7.25754 20.5545C12.7854 20.5545 18.3036 20.5447 23.8315 20.5642C24.2597 20.5642 24.4349 20.4474 24.542 20.0192C25.0675 17.9852 25.632 15.9609 26.177 13.9268C26.3716 13.2748 26.3716 13.2748 25.6904 13.2748Z" fill="#FD4F01"/>
<path d="M48.1525 0.564569C47.5977 2.6278 47.0527 4.70076 46.4785 6.76399C46.3617 7.17274 46.4201 7.29926 46.8873 7.28953C49.5052 7.27006 52.1329 7.27979 54.7509 7.27979C55.4419 7.27979 55.4419 7.27979 55.257 7.95132C53.5052 14.4524 51.7631 20.9633 50.0016 27.4644C49.8751 27.9218 49.9724 27.9997 50.4103 27.9899C52.493 27.9705 54.566 27.9705 56.6487 27.9899C57.0769 27.9997 57.2229 27.8537 57.3299 27.4644C58.9552 21.372 60.5902 15.2797 62.2447 9.18731C62.342 8.82722 62.2642 8.66177 61.9235 8.51578C61.0574 8.15569 60.2009 7.75667 59.3445 7.37712C59.3542 7.34792 59.364 7.30899 59.3737 7.27979C59.5684 7.27979 59.7727 7.27979 59.9674 7.27979C63.7532 7.27979 67.5293 7.27979 71.3151 7.27979C71.5584 7.27979 71.8407 7.36738 71.938 6.98783C72.5414 4.66183 73.1545 2.34556 73.7676 0.0292969C65.2617 0.0292969 56.7655 0.0292969 48.2595 0.0292969C48.279 0.214209 48.2011 0.379657 48.1525 0.564569Z" fill="#FD4F01"/>
<path d="M37.1447 0.506075C34.7409 9.44998 32.3273 18.3939 29.9234 27.3378C29.7482 27.9704 29.7482 27.9704 30.4003 27.9704C32.444 27.9704 34.4781 27.9606 36.5218 27.9801C36.9209 27.9801 37.1058 27.8828 37.2128 27.474C38.8381 21.3817 40.4731 15.2893 42.1179 9.19694C42.2249 8.81738 42.1665 8.6422 41.787 8.48649C40.9208 8.13613 40.0741 7.72738 39.2177 7.34782C40.2396 7.2505 41.2322 7.24076 42.2249 7.26023C42.5461 7.26996 42.6726 7.16291 42.7505 6.85148C43.1008 5.45977 43.4998 4.08753 43.8599 2.69582C44.0935 1.80046 44.4244 0.92456 44.5315 0C42.0984 0 39.6654 0 37.2226 0C37.2615 0.194644 37.1934 0.35036 37.1447 0.506075Z" fill="#FD4F01"/>
</svg>
