<svg width="20" height="20" viewBox="0 0 20 20" fill="none" xmlns="http://www.w3.org/2000/svg">
<path d="M15.666 15.8337C16.5994 15.8337 17.0661 15.8337 17.4227 15.652C17.7363 15.4922 17.9912 15.2372 18.151 14.9236C18.3327 14.5671 18.3327 14.1004 18.3327 13.167V6.83366C18.3327 5.90024 18.3327 5.43353 18.151 5.07701C17.9912 4.76341 17.7363 4.50844 17.4227 4.34865C17.0661 4.16699 16.5994 4.16699 15.666 4.16699L4.33268 4.16699C3.39926 4.16699 2.93255 4.16699 2.57603 4.34865C2.26243 4.50844 2.00746 4.7634 1.84767 5.07701C1.66602 5.43353 1.66602 5.90024 1.66602 6.83366L1.66602 13.167C1.66602 14.1004 1.66602 14.5671 1.84767 14.9236C2.00746 15.2372 2.26243 15.4922 2.57603 15.652C2.93255 15.8337 3.39926 15.8337 4.33268 15.8337L15.666 15.8337Z" fill="white"/>
<path d="M18.3327 8.33366H1.66602M9.16602 11.667H4.99935M1.66602 6.83366L1.66602 13.167C1.66602 14.1004 1.66602 14.5671 1.84767 14.9236C2.00746 15.2372 2.26243 15.4922 2.57603 15.652C2.93255 15.8337 3.39926 15.8337 4.33268 15.8337L15.666 15.8337C16.5994 15.8337 17.0661 15.8337 17.4227 15.652C17.7363 15.4922 17.9912 15.2372 18.151 14.9236C18.3327 14.5671 18.3327 14.1004 18.3327 13.167V6.83366C18.3327 5.90024 18.3327 5.43353 18.151 5.07701C17.9912 4.76341 17.7363 4.50844 17.4227 4.34865C17.0661 4.16699 16.5994 4.16699 15.666 4.16699L4.33268 4.16699C3.39926 4.16699 2.93255 4.16699 2.57603 4.34865C2.26243 4.50844 2.00746 4.7634 1.84767 5.07701C1.66602 5.43353 1.66602 5.90024 1.66602 6.83366Z" stroke="#8E95A2" stroke-width="1.25" stroke-linecap="round" stroke-linejoin="round"/>
</svg>
