<svg width="20" height="20" viewBox="0 0 20 20" fill="none" xmlns="http://www.w3.org/2000/svg">
<path d="M10.0007 10.8337C11.3814 10.8337 12.5007 9.71437 12.5007 8.33366C12.5007 6.95295 11.3814 5.83366 10.0007 5.83366C8.61994 5.83366 7.50065 6.95295 7.50065 8.33366C7.50065 9.71437 8.61994 10.8337 10.0007 10.8337Z" fill="white"/>
<path d="M10.0007 18.3337C13.334 15.0003 16.6673 12.0156 16.6673 8.33366C16.6673 4.65176 13.6825 1.66699 10.0007 1.66699C6.31875 1.66699 3.33398 4.65176 3.33398 8.33366C3.33398 12.0156 6.66732 15.0003 10.0007 18.3337Z" fill="white"/>
<path d="M10.0007 10.8337C11.3814 10.8337 12.5007 9.71437 12.5007 8.33366C12.5007 6.95295 11.3814 5.83366 10.0007 5.83366C8.61994 5.83366 7.50065 6.95295 7.50065 8.33366C7.50065 9.71437 8.61994 10.8337 10.0007 10.8337Z" stroke="#FD4F01" stroke-width="1.25" stroke-linecap="round" stroke-linejoin="round"/>
<path d="M10.0007 18.3337C13.334 15.0003 16.6673 12.0156 16.6673 8.33366C16.6673 4.65176 13.6825 1.66699 10.0007 1.66699C6.31875 1.66699 3.33398 4.65176 3.33398 8.33366C3.33398 12.0156 6.66732 15.0003 10.0007 18.3337Z" stroke="#FD4F01" stroke-width="1.25" stroke-linecap="round" stroke-linejoin="round"/>
</svg>
