<svg width="18" height="18" viewBox="0 0 18 18" fill="none" xmlns="http://www.w3.org/2000/svg">
<path d="M1.5 6.33366C1.5 4.93353 1.5 4.23346 1.77248 3.69868C2.01217 3.22828 2.39462 2.84583 2.86502 2.60614C3.3998 2.33366 4.09987 2.33366 5.5 2.33366H12.5C13.9001 2.33366 14.6002 2.33366 15.135 2.60614C15.6054 2.84583 15.9878 3.22828 16.2275 3.69868C16.5 4.23346 16.5 4.93353 16.5 6.33366V13.3337C16.5 14.7338 16.5 15.4339 16.2275 15.9686C15.9878 16.439 15.6054 16.8215 15.135 17.0612C14.6002 17.3337 13.9001 17.3337 12.5 17.3337H5.5C4.09987 17.3337 3.3998 17.3337 2.86502 17.0612C2.39462 16.8215 2.01217 16.439 1.77248 15.9686C1.5 15.4339 1.5 14.7338 1.5 13.3337V6.33366Z" fill="white"/>
<path d="M16.5 7.33366H1.5M12.3333 0.666992V4.00033M5.66667 0.666992V4.00033M5.5 17.3337H12.5C13.9001 17.3337 14.6002 17.3337 15.135 17.0612C15.6054 16.8215 15.9878 16.439 16.2275 15.9686C16.5 15.4339 16.5 14.7338 16.5 13.3337V6.33366C16.5 4.93353 16.5 4.23346 16.2275 3.69868C15.9878 3.22828 15.6054 2.84583 15.135 2.60614C14.6002 2.33366 13.9001 2.33366 12.5 2.33366H5.5C4.09987 2.33366 3.3998 2.33366 2.86502 2.60614C2.39462 2.84583 2.01217 3.22828 1.77248 3.69868C1.5 4.23346 1.5 4.93353 1.5 6.33366V13.3337C1.5 14.7338 1.5 15.4339 1.77248 15.9686C2.01217 16.439 2.39462 16.8215 2.86502 17.0612C3.3998 17.3337 4.09987 17.3337 5.5 17.3337Z" stroke="#FD4F01" stroke-width="1.25" stroke-linecap="round" stroke-linejoin="round"/>
</svg>
