<svg width="24" height="24" viewBox="0 0 24 24" fill="none" xmlns="http://www.w3.org/2000/svg">
<path d="M25.165 -1.16504V25.165H-1.16504V-1.16504H25.165Z" stroke="#FD4F01" stroke-width="1.67"/>
<path d="M2.66602 7.33268C2.66602 6.09501 3.15768 4.90802 4.03285 4.03285C4.90802 3.15768 6.09501 2.66602 7.33268 2.66602H16.666C17.9037 2.66602 19.0907 3.15768 19.9658 4.03285C20.841 4.90802 21.3327 6.09501 21.3327 7.33268V16.666C21.3327 17.9037 20.841 19.0907 19.9658 19.9658C19.0907 20.841 17.9037 21.3327 16.666 21.3327H7.33268C6.09501 21.3327 4.90802 20.841 4.03285 19.9658C3.15768 19.0907 2.66602 17.9037 2.66602 16.666V7.33268Z" stroke="#FD4F01" stroke-width="1.67" stroke-linecap="round" stroke-linejoin="round"/>
<path d="M8.5 12C8.5 12.9283 8.86875 13.8185 9.52513 14.4749C10.1815 15.1313 11.0717 15.5 12 15.5C12.9283 15.5 13.8185 15.1313 14.4749 14.4749C15.1313 13.8185 15.5 12.9283 15.5 12C15.5 11.0717 15.1313 10.1815 14.4749 9.52513C13.8185 8.86875 12.9283 8.5 12 8.5C11.0717 8.5 10.1815 8.86875 9.52513 9.52513C8.86875 10.1815 8.5 11.0717 8.5 12Z" stroke="#FD4F01" stroke-width="1.67" stroke-linecap="round" stroke-linejoin="round"/>
<path d="M17.25 6.75V6.76167" stroke="#FD4F01" stroke-width="1.67" stroke-linecap="round" stroke-linejoin="round"/>
</svg>
