<svg width="16" height="16" viewBox="0 0 16 16" fill="none" xmlns="http://www.w3.org/2000/svg">
<path d="M1.79153 12.427L7.4104 15.6112C7.81019 15.8397 8.18859 15.8397 8.59557 15.6112L14.2073 12.427C14.8642 12.0557 15.2069 11.6773 15.2069 10.6563V5.00177C15.2069 4.25926 14.9355 3.79518 14.3358 3.45248L9.28097 0.582364C8.41706 0.0897327 7.58172 0.0897327 6.71785 0.582364L1.67016 3.45248C1.0633 3.79518 0.791992 4.25926 0.791992 5.00177V10.6563C0.791992 11.6773 1.14183 12.0557 1.79153 12.427ZM2.4341 11.4845C2.02 11.2561 1.87721 11.0133 1.87721 10.6206V5.23024L7.43898 8.40735V14.3332L2.4341 11.4845ZM13.5719 11.4845L8.55987 14.3332V8.40735L14.1216 5.23024V10.6206C14.1216 11.0133 13.9788 11.2561 13.5719 11.4845ZM8.00296 7.40783L2.49121 4.28781L4.69735 3.0241L10.2091 6.15838L8.00296 7.40783ZM11.3586 5.50868L5.8254 2.38154L7.19619 1.60333C7.74598 1.28919 8.25287 1.28205 8.80978 1.60333L13.5147 4.28781L11.3586 5.50868Z" fill="#FD4F01"/>
</svg>
