<svg width="20" height="20" viewBox="0 0 20 20" fill="none" xmlns="http://www.w3.org/2000/svg">
<g clip-path="url(#clip0_2266_22413)">
<path d="M8.33366 12.4993L5.77095 15.0941C5.41348 15.456 5.23475 15.637 5.08112 15.6498C4.94784 15.6608 4.81734 15.6073 4.73029 15.5057C4.62996 15.3887 4.62996 15.1343 4.62996 14.6256V13.3257C4.62996 12.8693 4.25622 12.5391 3.80466 12.473V12.473C2.71178 12.3129 1.85347 11.4546 1.69339 10.3617C1.66699 10.1815 1.66699 9.96645 1.66699 9.53638V5.66602C1.66699 4.26588 1.66699 3.56582 1.93948 3.03104C2.17916 2.56063 2.56161 2.17818 3.03202 1.9385C3.5668 1.66602 4.26686 1.66602 5.66699 1.66602H11.8337C13.2338 1.66602 13.9339 1.66602 14.4686 1.9385C14.939 2.17818 15.3215 2.56063 15.5612 3.03104C15.8337 3.56582 15.8337 4.26588 15.8337 5.66602V9.16602M15.8337 18.3327L14.02 17.0717C13.765 16.8945 13.6376 16.8059 13.4988 16.743C13.3757 16.6873 13.2462 16.6467 13.1133 16.6222C12.9635 16.5946 12.8083 16.5946 12.4978 16.5946H11.0003C10.0669 16.5946 9.60019 16.5946 9.24368 16.4129C8.93007 16.2531 8.6751 15.9982 8.51532 15.6846C8.33366 15.3281 8.33366 14.8613 8.33366 13.9279V11.8327C8.33366 10.8993 8.33366 10.4326 8.51532 10.076C8.6751 9.76243 8.93007 9.50746 9.24368 9.34767C9.60019 9.16602 10.0669 9.16602 11.0003 9.16602H15.667C16.6004 9.16602 17.0671 9.16602 17.4236 9.34767C17.7372 9.50746 17.9922 9.76243 18.152 10.076C18.3337 10.4326 18.3337 10.8993 18.3337 11.8327V14.0946C18.3337 14.8712 18.3337 15.2594 18.2068 15.5657C18.0376 15.9741 17.7132 16.2986 17.3048 16.4677C16.9985 16.5946 16.6102 16.5946 15.8337 16.5946V18.3327Z" stroke="#FD4F01" stroke-width="1.6" stroke-linecap="round" stroke-linejoin="round"/>
</g>
<defs>
<clipPath id="clip0_2266_22413">
<rect width="20" height="20" fill="white"/>
</clipPath>
</defs>
</svg>
