<svg width="20" height="20" viewBox="0 0 20 20" fill="none" xmlns="http://www.w3.org/2000/svg">
<g clip-path="url(#clip0_2266_36887)">
<path d="M10.0003 12.4993C11.381 12.4993 12.5003 11.3801 12.5003 9.99935C12.5003 8.61864 11.381 7.49935 10.0003 7.49935C8.61961 7.49935 7.50033 8.61864 7.50033 9.99935C7.50033 11.3801 8.61961 12.4993 10.0003 12.4993Z" stroke="#FD4F01" stroke-width="1.6" stroke-linecap="round" stroke-linejoin="round"/>
<path d="M15.6064 12.2721C15.5055 12.5006 15.4755 12.754 15.52 12.9998C15.5646 13.2455 15.6817 13.4723 15.8564 13.6509L15.9018 13.6963C16.0427 13.837 16.1545 14.0041 16.2307 14.1881C16.307 14.372 16.3462 14.5692 16.3462 14.7683C16.3462 14.9674 16.307 15.1646 16.2307 15.3485C16.1545 15.5324 16.0427 15.6995 15.9018 15.8403C15.7611 15.9811 15.594 16.0929 15.4101 16.1691C15.2261 16.2454 15.029 16.2846 14.8299 16.2846C14.6308 16.2846 14.4336 16.2454 14.2497 16.1691C14.0657 16.0929 13.8986 15.9811 13.7579 15.8403L13.7124 15.7948C13.5339 15.6202 13.3071 15.503 13.0614 15.4584C12.8156 15.4139 12.5622 15.444 12.3337 15.5448C12.1096 15.6408 11.9185 15.8003 11.7839 16.0035C11.6493 16.2068 11.5771 16.445 11.5761 16.6887V16.8175C11.5761 17.2194 11.4165 17.6048 11.1323 17.8889C10.8482 18.1731 10.4628 18.3327 10.0609 18.3327C9.65909 18.3327 9.2737 18.1731 8.98956 17.8889C8.70541 17.6048 8.54578 17.2194 8.54578 16.8175V16.7493C8.53991 16.4986 8.45875 16.2554 8.31283 16.0514C8.16692 15.8474 7.963 15.692 7.7276 15.6054C7.4991 15.5046 7.24563 15.4745 6.99988 15.519C6.75413 15.5636 6.52736 15.6808 6.34881 15.8554L6.30336 15.9009C6.16264 16.0417 5.99554 16.1535 5.8116 16.2297C5.62766 16.306 5.4305 16.3452 5.23139 16.3452C5.03227 16.3452 4.83511 16.306 4.65117 16.2297C4.46724 16.1535 4.30013 16.0417 4.15942 15.9009C4.01854 15.7601 3.90679 15.593 3.83054 15.4091C3.75429 15.2252 3.71504 15.028 3.71504 14.8289C3.71504 14.6298 3.75429 14.4326 3.83054 14.2487C3.90679 14.0647 4.01854 13.8976 4.15942 13.7569L4.20487 13.7115C4.37952 13.5329 4.49668 13.3062 4.54124 13.0604C4.5858 12.8146 4.55572 12.5612 4.45487 12.3327C4.35884 12.1086 4.19938 11.9175 3.99613 11.7829C3.79288 11.6483 3.55471 11.5761 3.31093 11.5751H3.18214C2.7803 11.5751 2.39492 11.4155 2.11077 11.1313C1.82662 10.8472 1.66699 10.4618 1.66699 10.06C1.66699 9.65811 1.82662 9.27273 2.11077 8.98858C2.39492 8.70444 2.7803 8.5448 3.18214 8.5448H3.25033C3.50108 8.53894 3.74427 8.45777 3.94828 8.31186C4.15229 8.16594 4.30769 7.96203 4.39427 7.72662C4.49511 7.49813 4.52519 7.24466 4.48063 6.9989C4.43607 6.75315 4.31891 6.52638 4.14427 6.34783L4.09881 6.30238C3.95794 6.16166 3.84618 5.99456 3.76993 5.81062C3.69368 5.62669 3.65444 5.42952 3.65444 5.23041C3.65444 5.0313 3.69368 4.83413 3.76993 4.6502C3.84618 4.46626 3.95794 4.29916 4.09881 4.15844C4.23953 4.01757 4.40663 3.90581 4.59057 3.82956C4.7745 3.75331 4.97167 3.71407 5.17078 3.71407C5.36989 3.71407 5.56706 3.75331 5.75099 3.82956C5.93493 3.90581 6.10203 4.01757 6.24275 4.15844L6.2882 4.20389C6.46675 4.37854 6.69352 4.4957 6.93927 4.54026C7.18503 4.58482 7.4385 4.55474 7.66699 4.45389H7.7276C7.95167 4.35786 8.14276 4.19841 8.27737 3.99516C8.41197 3.79191 8.4842 3.55373 8.48517 3.30996V3.18117C8.48517 2.77932 8.64481 2.39394 8.92895 2.10979C9.2131 1.82565 9.59848 1.66602 10.0003 1.66602C10.4022 1.66602 10.7876 1.82565 11.0717 2.10979C11.3558 2.39394 11.5155 2.77932 11.5155 3.18117V3.24935C11.5164 3.49313 11.5887 3.7313 11.7233 3.93455C11.8579 4.1378 12.049 4.29726 12.2731 4.39329C12.5016 4.49413 12.755 4.52422 13.0008 4.47966C13.2465 4.4351 13.4733 4.31794 13.6518 4.14329L13.6973 4.09783C13.838 3.95696 14.0051 3.8452 14.1891 3.76896C14.373 3.69271 14.5702 3.65346 14.7693 3.65346C14.9684 3.65346 15.1655 3.69271 15.3495 3.76896C15.5334 3.8452 15.7005 3.95696 15.8412 4.09783C15.9821 4.23855 16.0939 4.40565 16.1701 4.58959C16.2464 4.77353 16.2856 4.97069 16.2856 5.1698C16.2856 5.36892 16.2464 5.56608 16.1701 5.75002C16.0939 5.93395 15.9821 6.10106 15.8412 6.24177L15.7958 6.28723C15.6211 6.46577 15.504 6.69254 15.4594 6.9383C15.4149 7.18405 15.4449 7.43752 15.5458 7.66602V7.72662C15.6418 7.95069 15.8013 8.14179 16.0045 8.27639C16.2078 8.41099 16.4459 8.48323 16.6897 8.4842H16.8185C17.2204 8.4842 17.6057 8.64383 17.8899 8.92798C18.174 9.21212 18.3337 9.59751 18.3337 9.99935C18.3337 10.4012 18.174 10.7866 17.8899 11.0707C17.6057 11.3549 17.2204 11.5145 16.8185 11.5145H16.7503C16.5065 11.5155 16.2684 11.5877 16.0651 11.7223C15.8619 11.8569 15.7024 12.048 15.6064 12.2721Z" stroke="#FD4F01" stroke-width="1.6" stroke-linecap="round" stroke-linejoin="round"/>
</g>
<defs>
<clipPath id="clip0_2266_36887">
<rect width="20" height="20" fill="white"/>
</clipPath>
</defs>
</svg>
