<svg width="20" height="20" viewBox="0 0 20 20" fill="none" xmlns="http://www.w3.org/2000/svg">
<path d="M2.99316 3.00195H3.90748C4.07969 3.00195 4.1658 3.00195 4.23509 3.03362C4.29616 3.06153 4.34791 3.10641 4.38417 3.16291C4.42532 3.22703 4.4375 3.31228 4.46185 3.48276L4.79316 5.80195M4.79316 5.80195L5.52949 11.2139C5.62293 11.9007 5.66965 12.2441 5.83383 12.5026C5.97851 12.7304 6.18592 12.9115 6.43111 13.0241C6.70937 13.152 7.05592 13.152 7.74904 13.152H13.7396C14.3993 13.152 14.7292 13.152 14.9988 13.0332C15.2365 12.9286 15.4405 12.7598 15.5878 12.5459C15.7548 12.3033 15.8165 11.9792 15.94 11.3311L16.8665 6.46674C16.91 6.23862 16.9317 6.12456 16.9002 6.0354C16.8726 5.95719 16.8181 5.89133 16.7464 5.84957C16.6648 5.80195 16.5486 5.80195 16.3164 5.80195H4.79316ZM8.59316 16.302C8.59316 16.6886 8.27976 17.002 7.89316 17.002C7.50656 17.002 7.19316 16.6886 7.19316 16.302C7.19316 15.9154 7.50656 15.602 7.89316 15.602C8.27976 15.602 8.59316 15.9154 8.59316 16.302ZM14.1932 16.302C14.1932 16.6886 13.8798 17.002 13.4932 17.002C13.1066 17.002 12.7932 16.6886 12.7932 16.302C12.7932 15.9154 13.1066 15.602 13.4932 15.602C13.8798 15.602 14.1932 15.9154 14.1932 16.302Z" stroke="#FD4F01" stroke-width="1.6" stroke-linecap="round" stroke-linejoin="round"/>
</svg>
