<svg width="16" height="16" viewBox="0 0 16 16" fill="none" xmlns="http://www.w3.org/2000/svg">
<path d="M8.66634 3.33333C8.66634 4.06971 7.02472 4.66667 4.99967 4.66667C2.97463 4.66667 1.33301 4.06971 1.33301 3.33333M8.66634 3.33333C8.66634 2.59695 7.02472 2 4.99967 2C2.97463 2 1.33301 2.59695 1.33301 3.33333M8.66634 3.33333V6.30477C7.85201 6.54932 7.33301 6.91929 7.33301 7.33333M1.33301 3.33333V11.3333C1.33301 12.0697 2.97463 12.6667 4.99967 12.6667C5.88609 12.6667 6.69905 12.5523 7.33301 12.3619V7.33333M1.33301 6C1.33301 6.73638 2.97463 7.33333 4.99967 7.33333C5.88609 7.33333 6.69905 7.21895 7.33301 7.02857M1.33301 8.66667C1.33301 9.40305 2.97463 10 4.99967 10C5.88609 10 6.69905 9.88562 7.33301 9.69523M14.6663 7.33333C14.6663 8.06971 13.0247 8.66667 10.9997 8.66667C8.97463 8.66667 7.33301 8.06971 7.33301 7.33333M14.6663 7.33333C14.6663 6.59695 13.0247 6 10.9997 6C8.97463 6 7.33301 6.59695 7.33301 7.33333M14.6663 7.33333V12.6667C14.6663 13.403 13.0247 14 10.9997 14C8.97463 14 7.33301 13.403 7.33301 12.6667V7.33333M14.6663 10C14.6663 10.7364 13.0247 11.3333 10.9997 11.3333C8.97463 11.3333 7.33301 10.7364 7.33301 10" stroke="#FD4F01" stroke-width="1.33333" stroke-linecap="round" stroke-linejoin="round"/>
</svg>
