<svg width="16" height="18" viewBox="0 0 16 18" fill="none" xmlns="http://www.w3.org/2000/svg">
<path d="M1.58789 10.0684C1.58789 11.8735 2.30497 13.6047 3.58139 14.8811C4.85781 16.1575 6.58901 16.8746 8.39414 16.8746C10.1993 16.8746 11.9305 16.1575 13.2069 14.8811C14.4833 13.6047 15.2004 11.8735 15.2004 10.0684H1.58789Z" stroke="#FF7435" stroke-width="1.6" stroke-linecap="round" stroke-linejoin="round"/>
<path d="M2.99414 7.7628C3.09382 7.03544 3.45355 6.36879 4.0068 5.88619C4.56004 5.40359 5.26936 5.1377 6.00352 5.1377C6.73768 5.1377 7.44699 5.40359 8.00023 5.88619C8.55348 6.36879 8.91321 7.03544 9.01289 7.7628" stroke="#FF7435" stroke-width="1.6" stroke-linecap="round" stroke-linejoin="round"/>
<path d="M7.04297 4.7809C7.45134 4.31895 7.95365 3.94952 8.51628 3.6973C9.07891 3.44509 9.6889 3.31591 10.3055 3.31839C10.8864 3.31835 11.4616 3.43367 11.9976 3.65767C12.5336 3.88168 13.0198 4.20989 13.428 4.62329C13.8361 5.03668 14.1581 5.52702 14.3753 6.06584C14.5924 6.60467 14.7004 7.18126 14.693 7.76215" stroke="#FF7435" stroke-width="1.6" stroke-linecap="round" stroke-linejoin="round"/>
<path d="M8.50586 6.13128C8.94471 5.75801 9.50484 5.55796 10.0809 5.56878C10.7276 5.56861 11.3488 5.82164 11.8114 6.27369C12.2739 6.72575 12.5412 7.34091 12.5559 7.98753" stroke="#FF7435" stroke-width="1.6" stroke-linecap="round" stroke-linejoin="round"/>
<path d="M5.07578 4.95L1.64453 1.6875" stroke="#FF7435" stroke-width="1.6" stroke-linecap="round" stroke-linejoin="round"/>
<path d="M3.21875 6.6375L1.25 4.78125" stroke="#FF7435" stroke-width="1.6" stroke-linecap="round" stroke-linejoin="round"/>
</svg>
